HIERARCHY
ROOT pelvis
{
  OFFSET 0 100 0
  CHANNELS 6 Xposition Yposition Zposition Zrotation Xrotation Yrotation
  JOINT pelvis_right_femur
  {
    OFFSET -10.78128 -3.44521 -0.5502486
    CHANNELS 3 Zrotation Xrotation Yrotation
    JOINT right_femur_tibia
    {
      OFFSET -0.8047443 -44.0398 -0.1307829
      CHANNELS 3 Zrotation Xrotation Yrotation
      JOINT right_tibia_foot
      {
        OFFSET 3.006224 -47.83518 -5
        CHANNELS 3 Zrotation Xrotation Yrotation
        End Site
        {
          OFFSET 0 -5 15
        }
      }
    }
  }
  JOINT pelvis_left_femur
  {
    OFFSET 10.78128 -3.44521 -0.5502486
    CHANNELS 3 Zrotation Xrotation Yrotation
    JOINT left_femur_tibia
    {
      OFFSET 0.8047443 -44.0398 -0.1307829
      CHANNELS 3 Zrotation Xrotation Yrotation
      JOINT left_tibia_foot
      {
        OFFSET -4.370144 -48.10324 -4.275266
        CHANNELS 3 Zrotation Xrotation Yrotation
        End Site
        {
          OFFSET 0 -5 15
        }
      }
    }
  }
  JOINT pelvis_spine1
  {
    OFFSET 0 6.468898 -3.129235
    CHANNELS 3 Zrotation Xrotation Yrotation
    JOINT spine1
    {
      OFFSET 0 23.15396 4.99043
      CHANNELS 3 Zrotation Xrotation Yrotation
      JOINT spine2
      {
        OFFSET 0 20.79997 -5.064912
        CHANNELS 3 Zrotation Xrotation Yrotation
        JOINT neck
        {
          OFFSET 0 14.38658 9.616178
          CHANNELS 3 Zrotation Xrotation Yrotation
          End Site
          {
            OFFSET 0 20 0
          }
        }
      }
      JOINT right_manubrium
      {
        OFFSET -5.722621 16.35077 3.967754
        CHANNELS 3 Zrotation Xrotation Yrotation
        JOINT right_clavicle
        {
          OFFSET -13.16364 1.694482 -4.693211
          CHANNELS 3 Zrotation Xrotation Yrotation
          JOINT right_humerus
          {
            OFFSET -28.5034 -0.3100689 -2.792744
            CHANNELS 3 Zrotation Xrotation Yrotation
            JOINT right_radius
            {
              OFFSET -25.15693 0.02248979 -1.271978
              CHANNELS 3 Zrotation Xrotation Yrotation
              End Site
              {
                OFFSET -15 0 0
              }
            }
          }
        }
      }
      JOINT left_manubrium
      {
        OFFSET 5.722621 16.35077 3.967754
        CHANNELS 3 Zrotation Xrotation Yrotation
        JOINT left_clavicle
        {
          OFFSET 13.16364 1.694482 -4.693211
          CHANNELS 3 Zrotation Xrotation Yrotation
          JOINT left_humerus
          {
            OFFSET 29.39168 -1.063119 -2.237045
            CHANNELS 3 Zrotation Xrotation Yrotation
            JOINT left_radius
            {
              OFFSET 24.59957 -0.9528479 0.9047498
              CHANNELS 3 Zrotation Xrotation Yrotation
              End Site
              {
                OFFSET 15 -0 -0
              }
            }
          }
        }
      }
    }
  }
}
MOTION
Frames: 9
Frame Time: 0.0416666666667
39.26423 129.8214 298.0281 1.612086 -6.14228 -1.83149 -0.0348904 6.334373 3.273012 -0 8.809975 -0 2.866404 -15.50952 -2.202695 -2.935792 -6.117881 -6.650895 -0 11.95516 -0 -7.185824 -11.97833 16.16936 -1.400554 -1.297266 6.226265 -0.4694325 7.658126 -4.335166 2.099935 22.24064 5.620436 1.448074 -15.78876 8.041016 -0.7327429 -18.40712 9.454932 85.04756 22.55708 -12.239 -0 0 19.66244 -23.88753 13.1552 11.8644 6.062857 -16.23642 -3.675369 -88.66779 24.63067 16.01285 0 0 -15.52991 -1.755643 7.774485 14.21025
39.71714 128.5798 305.0458 1.564421 -6.256569 -1.848628 0.005487512 5.353539 3.132459 -0 8.55151 -0 2.39067 -15.88032 -2.494099 -2.907003 -5.498455 -6.771007 -0 11.29382 -0 -7.077566 -12.50812 16.20409 -1.437293 -1.11339 6.005648 -0.4380135 7.506578 -4.372802 2.169353 22.40234 5.54762 1.376416 -15.75279 8.114043 -0.925277 -18.23795 9.310653 85.24241 22.48696 -12.24469 -0 0 19.35835 -23.53225 12.94978 11.67132 6.134145 -16.33143 -3.64625 -88.38326 24.80726 15.3319 0 0 -15.69261 -1.517918 8.036672 13.86308
40.11541 127.2362 311.9822 1.505134 -6.366958 -1.868656 0.07470589 4.232166 2.986038 -0 8.059495 -0 1.846417 -16.20889 -2.810947 -2.870187 -4.72018 -6.888247 -0 10.8772 -0 -6.973329 -13.01017 16.22829 -1.468895 -0.929802 5.756209 -0.3832374 7.369774 -4.439678 2.238757 22.57099 5.469695 1.312143 -15.72584 8.176653 -1.102467 -18.02585 9.174004 85.49015 22.46291 -12.3434 -0 0 18.92714 -23.13137 12.74706 11.44526 6.210564 -16.48651 -3.622574 -88.04473 24.97278 14.53342 0 0 -15.94166 -1.230033 8.327508 13.45288
40.44749 125.7964 318.8343 1.434611 -6.47381 -1.901292 0.1683325 3.010049 2.835418 -0 7.368775 -0 1.243792 -16.49283 -3.144478 -2.825089 -3.822418 -7.002415 -0 10.67811 -0 -6.871741 -13.47934 16.24621 -1.494903 -0.7478665 5.484957 -0.3089946 7.248751 -4.529946 2.307123 22.74441 5.388175 1.255644 -15.7088 8.228859 -1.26465 -17.7822 9.046487 85.78032 22.47811 -12.518 -0 0 18.39201 -22.69683 12.54602 11.19585 6.290338 -16.69225 -3.603942 -87.66851 25.12207 13.64908 0 0 -16.25623 -0.8987808 8.641034 12.98966
40.7041 124.267 325.5996 1.353973 -6.577783 -1.954675 0.280517 1.740871 2.681342 -0 6.527445 -0 0.594609 -16.72797 -3.482465 -2.771959 -2.858391 -7.113683 -0 10.65816 -0 -6.769853 -13.90952 16.26459 -1.51524 -0.5689687 5.200813 -0.2205074 7.144857 -4.635654 2.373042 22.92039 5.305227 1.207594 -15.7031 8.270769 -1.412651 -17.52203 8.929732 86.09933 22.52444 -12.74469 -0 0 17.78303 -22.24434 12.34468 10.93615 6.371157 -16.93608 -3.589852 -87.27671 25.24968 12.72125 0 0 -16.60683 -0.5328756 8.970595 12.48608
40.87939 122.6553 332.2757 1.265058 -6.679813 -2.035 0.4042536 0.4919086 2.523259 -0 5.595307 -0 -0.08797751 -16.90826 -3.809148 -2.711479 -1.894836 -7.222421 -0 10.76914 -0 -6.663185 -14.29339 16.29273 -1.530155 -0.3944687 4.914508 -0.1242337 7.059877 -4.746804 2.434724 23.0967 5.223674 1.169031 -15.71086 8.302539 -1.547741 -17.26387 8.82555 86.43034 22.5929 -12.99325 -0 0 17.13655 -21.79324 12.14016 10.68255 6.450227 -17.20261 -3.579759 -86.89693 25.35028 11.80269 0 0 -16.95557 -0.1427872 9.309131 11.95723
40.97177 120.9692 338.8603 1.170283 -6.781033 -2.146297 0.5318882 -0.6602588 2.359299 -0 4.639903 -0 -0.790026 -17.02646 -4.106188 -2.644701 -1.007738 -7.329 -0 10.9563 -0 -6.546129 -14.62275 16.34181 -1.540159 -0.22566 4.637963 -0.02745475 6.995936 -4.851999 2.4901 23.27118 5.146805 1.141266 -15.73468 8.32435 -1.671547 -17.02863 8.735835 86.75416 22.67423 -13.22891 -0 0 16.4931 -21.36533 11.92908 10.45368 6.52444 -17.47455 -3.573116 -86.56029 25.41922 10.95326 0 0 -17.25871 0.2597621 9.649588 11.41985
40.98425 119.2175 345.3506 1.072343 -6.8826 -2.290424 0.6559483 -1.638569 2.186703 -0 3.729611 -0 -1.49772 -17.07562 -4.354794 -2.572987 -0.2736081 -7.433608 -0 11.1639 -0 -6.412789 -14.88957 16.42326 -1.545945 -0.06372594 4.383071 0.06250129 6.955173 -4.939751 2.537071 23.44181 5.077981 1.12563 -15.77721 8.33644 -1.785864 -16.83726 8.662332 87.05119 22.75976 -13.41629 -0 0 15.89323 -20.98234 11.70821 10.2682 6.590681 -17.73448 -3.569432 -86.2977 25.45319 10.23314 0 0 -17.47192 0.6627594 9.985448 10.89083
40.92423 117.4098 351.7443 0.9738365 -6.985492 -2.467291 0.7701055 -2.376102 2.002584 -0 2.92559 -0 -2.198481 -17.05078 -4.538402 -2.497912 0.2409984 -7.536136 -0 11.34166 -0 -6.258021 -15.08734 16.54686 -1.548292 0.09030315 4.160241 0.1391712 6.9393 -5.000038 2.573807 23.60683 5.020142 1.123159 -15.84058 8.339129 -1.892427 -16.70804 8.606341 87.30395 22.84216 -13.52423 -0 0 15.3728 -20.66307 11.47518 10.14216 6.646192 -17.96696 -3.568308 -86.13544 25.45044 9.694738 0 0 -17.55663 1.055097 10.31125 10.38549
